<mxfile host="app.diagrams.net" agent="Mozilla/5.0 (Windows NT 10.0; Win64; x64) AppleWebKit/537.36 (KHTML, like Gecko) Chrome/127.0.0.0 Safari/537.36 Edg/127.0.0.0" version="24.7.6">
  <diagram name="第 1 页" id="yQUr45v_904ld_NFh-44">
    <mxGraphModel dx="4744" dy="3782" grid="1" gridSize="10" guides="1" tooltips="1" connect="1" arrows="1" fold="1" page="1" pageScale="1" pageWidth="680" pageHeight="1100" math="0" shadow="0">
      <root>
        <mxCell id="0" />
        <mxCell id="1" parent="0" />
        <mxCell id="ymj67bPEhnFG9HvoRt_i-1" value="" style="rounded=1;whiteSpace=wrap;html=1;fillColor=#bac8d3;strokeColor=#23445d;strokeWidth=3;shadow=1;arcSize=7;textShadow=1;" vertex="1" parent="1">
          <mxGeometry x="-2017" y="-2184" width="600" height="1060" as="geometry" />
        </mxCell>
        <mxCell id="ymj67bPEhnFG9HvoRt_i-3" value="" style="shape=flexArrow;endArrow=classic;html=1;rounded=0;strokeWidth=4;endWidth=25.992865636147446;endSize=7.303448275862069;width=19.310344827586206;" edge="1" parent="1">
          <mxGeometry width="50" height="50" relative="1" as="geometry">
            <mxPoint x="-1753.8405922551256" y="-2088.7279337450873" as="sourcePoint" />
            <mxPoint x="-1753.8405922551256" y="-2036.866619876474" as="targetPoint" />
          </mxGeometry>
        </mxCell>
        <mxCell id="ymj67bPEhnFG9HvoRt_i-4" value="&lt;b style=&quot;&quot;&gt;&lt;font style=&quot;font-size: 22px;&quot;&gt;Subnetworks Merge&lt;/font&gt;&lt;/b&gt;" style="rounded=0;whiteSpace=wrap;html=1;fillColor=#647687;fontColor=#ffffff;strokeColor=#314354;strokeWidth=3;shadow=1;container=0;" vertex="1" parent="1">
          <mxGeometry x="-1698.1244874715262" y="-1205.997507018529" width="264.2369020501139" height="71.80797304884895" as="geometry" />
        </mxCell>
        <mxCell id="ymj67bPEhnFG9HvoRt_i-5" value="" style="shape=flexArrow;endArrow=classic;html=1;rounded=0;strokeWidth=4;endWidth=25.992865636147446;endSize=7.303448275862069;width=19.310344827586206;" edge="1" parent="1">
          <mxGeometry width="50" height="50" relative="1" as="geometry">
            <mxPoint x="-1566.835785876993" y="-1265.9968163952838" as="sourcePoint" />
            <mxPoint x="-1566.835785876993" y="-1214.1355025266705" as="targetPoint" />
          </mxGeometry>
        </mxCell>
        <mxCell id="ymj67bPEhnFG9HvoRt_i-6" value="" style="shape=flexArrow;endArrow=classic;html=1;rounded=0;strokeWidth=4;endWidth=25.992865636147446;endSize=7.303448275862069;width=19.310344827586206;" edge="1" parent="1">
          <mxGeometry width="50" height="50" relative="1" as="geometry">
            <mxPoint x="-1753.8405922551256" y="-1933.7306625491296" as="sourcePoint" />
            <mxPoint x="-1753.8405922551256" y="-1881.8693486805166" as="targetPoint" />
          </mxGeometry>
        </mxCell>
        <mxCell id="ymj67bPEhnFG9HvoRt_i-7" value="&lt;span style=&quot;font-size: 34px;&quot;&gt;&lt;b&gt;......&lt;/b&gt;&lt;/span&gt;" style="text;html=1;align=center;verticalAlign=middle;whiteSpace=wrap;rounded=0;container=0;" vertex="1" parent="1">
          <mxGeometry x="-1694.1546469248292" y="-1764.7641774284111" width="92.48291571753987" height="23.935991016282983" as="geometry" />
        </mxCell>
        <mxCell id="ymj67bPEhnFG9HvoRt_i-8" value="&lt;b style=&quot;color: rgb(0, 0, 0);&quot;&gt;&lt;font style=&quot;font-size: 22px;&quot; color=&quot;#ffffff&quot;&gt;&amp;nbsp;Adaptive MFFC-based Hypergraph Partition&lt;/font&gt;&lt;/b&gt;" style="rounded=0;whiteSpace=wrap;html=1;fillColor=#647687;fontColor=#ffffff;strokeColor=#314354;strokeWidth=3;shadow=1;container=0;" vertex="1" parent="1">
          <mxGeometry x="-1883.71" y="-2033.73" width="276.35" height="95.74" as="geometry" />
        </mxCell>
        <mxCell id="ymj67bPEhnFG9HvoRt_i-9" value="" style="group" vertex="1" connectable="0" parent="1">
          <mxGeometry x="-1607.36" y="-1812" width="140.89" height="121.27" as="geometry" />
        </mxCell>
        <mxCell id="ymj67bPEhnFG9HvoRt_i-10" value="" style="rounded=1;whiteSpace=wrap;html=1;fillColor=#f5f5f5;fontColor=#333333;strokeColor=#666666;strokeWidth=4;shadow=1;container=0;" vertex="1" parent="ymj67bPEhnFG9HvoRt_i-9">
          <mxGeometry width="140.89" height="121.27000000000005" as="geometry" />
        </mxCell>
        <mxCell id="ymj67bPEhnFG9HvoRt_i-11" value="" style="ellipse;whiteSpace=wrap;html=1;aspect=fixed;strokeColor=#CC0000;strokeWidth=3;container=0;" vertex="1" parent="ymj67bPEhnFG9HvoRt_i-9">
          <mxGeometry x="6.44068571428581" y="70.33659999999995" width="14.790167754357762" height="14.790167754357762" as="geometry" />
        </mxCell>
        <mxCell id="ymj67bPEhnFG9HvoRt_i-12" value="" style="ellipse;whiteSpace=wrap;html=1;aspect=fixed;strokeColor=#CC0000;strokeWidth=3;container=0;" vertex="1" parent="ymj67bPEhnFG9HvoRt_i-9">
          <mxGeometry x="70.84754285714294" y="63.06039999999996" width="14.790167754357762" height="14.790167754357762" as="geometry" />
        </mxCell>
        <mxCell id="ymj67bPEhnFG9HvoRt_i-13" value="" style="ellipse;whiteSpace=wrap;html=1;aspect=fixed;strokeColor=#CC0000;strokeWidth=3;container=0;" vertex="1" parent="ymj67bPEhnFG9HvoRt_i-9">
          <mxGeometry x="99.02554285714292" y="2.425399999999953" width="14.790167754357762" height="14.790167754357762" as="geometry" />
        </mxCell>
        <mxCell id="ymj67bPEhnFG9HvoRt_i-14" value="" style="endArrow=none;html=1;rounded=0;strokeWidth=3;exitX=1.003;exitY=0.597;exitDx=0;exitDy=0;exitPerimeter=0;entryX=-0.006;entryY=0.597;entryDx=0;entryDy=0;entryPerimeter=0;" edge="1" parent="ymj67bPEhnFG9HvoRt_i-9" source="ymj67bPEhnFG9HvoRt_i-11" target="ymj67bPEhnFG9HvoRt_i-12">
          <mxGeometry width="50" height="50" relative="1" as="geometry">
            <mxPoint x="24.957657142857133" y="79.06804000000002" as="sourcePoint" />
            <mxPoint x="49.11022857142857" y="48.50799999999996" as="targetPoint" />
          </mxGeometry>
        </mxCell>
        <mxCell id="ymj67bPEhnFG9HvoRt_i-15" value="" style="endArrow=none;html=1;rounded=0;strokeWidth=3;entryX=0.923;entryY=0.216;entryDx=0;entryDy=0;exitX=0.292;exitY=0.963;exitDx=0;exitDy=0;exitPerimeter=0;entryPerimeter=0;" edge="1" parent="ymj67bPEhnFG9HvoRt_i-9" source="ymj67bPEhnFG9HvoRt_i-13" target="ymj67bPEhnFG9HvoRt_i-12">
          <mxGeometry width="50" height="50" relative="1" as="geometry">
            <mxPoint x="59.97888571428577" y="48.50799999999996" as="sourcePoint" />
            <mxPoint x="77.28822857142862" y="70.82168000000001" as="targetPoint" />
          </mxGeometry>
        </mxCell>
        <mxCell id="ymj67bPEhnFG9HvoRt_i-16" value="" style="endArrow=none;html=1;rounded=0;strokeWidth=3;exitX=1.012;exitY=0.625;exitDx=0;exitDy=0;exitPerimeter=0;entryX=0.073;entryY=0.237;entryDx=0;entryDy=0;entryPerimeter=0;" edge="1" parent="ymj67bPEhnFG9HvoRt_i-9" source="ymj67bPEhnFG9HvoRt_i-12" target="ymj67bPEhnFG9HvoRt_i-19">
          <mxGeometry width="50" height="50" relative="1" as="geometry">
            <mxPoint x="86.94925714285726" y="48.50799999999996" as="sourcePoint" />
            <mxPoint x="154.17391428571437" y="94.59059999999997" as="targetPoint" />
          </mxGeometry>
        </mxCell>
        <mxCell id="ymj67bPEhnFG9HvoRt_i-17" value="" style="endArrow=none;html=1;rounded=0;strokeWidth=3;entryX=0.308;entryY=0.021;entryDx=0;entryDy=0;exitX=0.755;exitY=0.968;exitDx=0;exitDy=0;exitPerimeter=0;entryPerimeter=0;" edge="1" parent="ymj67bPEhnFG9HvoRt_i-9" source="ymj67bPEhnFG9HvoRt_i-13">
          <mxGeometry width="50" height="50" relative="1" as="geometry">
            <mxPoint x="107.88148571428579" y="26.194319999999994" as="sourcePoint" />
            <mxPoint x="120.08658514285713" y="97.4234672" as="targetPoint" />
          </mxGeometry>
        </mxCell>
        <mxCell id="ymj67bPEhnFG9HvoRt_i-18" value="" style="endArrow=none;html=1;rounded=0;strokeWidth=3;exitX=1;exitY=1;exitDx=0;exitDy=0;entryX=0.018;entryY=0.633;entryDx=0;entryDy=0;entryPerimeter=0;" edge="1" parent="ymj67bPEhnFG9HvoRt_i-9" source="ymj67bPEhnFG9HvoRt_i-11">
          <mxGeometry width="50" height="50" relative="1" as="geometry">
            <mxPoint x="26.567828571428652" y="86.82931999999992" as="sourcePoint" />
            <mxPoint x="115.41708800000015" y="109.29822560000004" as="targetPoint" />
          </mxGeometry>
        </mxCell>
        <mxCell id="ymj67bPEhnFG9HvoRt_i-19" value="" style="ellipse;whiteSpace=wrap;html=1;aspect=fixed;strokeColor=#CC0000;strokeWidth=3;container=0;" vertex="1" parent="ymj67bPEhnFG9HvoRt_i-9">
          <mxGeometry x="115.12725714285722" y="97.74361999999994" width="14.790167754357762" height="14.790167754357762" as="geometry" />
        </mxCell>
        <mxCell id="ymj67bPEhnFG9HvoRt_i-20" value="&lt;span style=&quot;font-size: 34px;&quot;&gt;&lt;b&gt;......&lt;/b&gt;&lt;/span&gt;" style="text;html=1;align=center;verticalAlign=middle;whiteSpace=wrap;rounded=0;container=0;" vertex="1" parent="1">
          <mxGeometry x="-1687.500501138952" y="-1537.968394160584" width="92.48291571753984" height="23.93599101628299" as="geometry" />
        </mxCell>
        <mxCell id="ymj67bPEhnFG9HvoRt_i-21" value="" style="group" vertex="1" connectable="0" parent="1">
          <mxGeometry x="-1627" y="-2164" width="180" height="120" as="geometry" />
        </mxCell>
        <mxCell id="ymj67bPEhnFG9HvoRt_i-22" value="" style="rounded=1;whiteSpace=wrap;html=1;fillColor=#f5f5f5;fontColor=#333333;strokeColor=#666666;strokeWidth=4;shadow=1;container=0;" vertex="1" parent="ymj67bPEhnFG9HvoRt_i-21">
          <mxGeometry width="180" height="120" as="geometry" />
        </mxCell>
        <mxCell id="ymj67bPEhnFG9HvoRt_i-23" value="" style="ellipse;whiteSpace=wrap;html=1;aspect=fixed;strokeColor=#CC0000;strokeWidth=3;container=0;" vertex="1" parent="ymj67bPEhnFG9HvoRt_i-21">
          <mxGeometry x="29.279999999999973" y="14.47180963288497" width="14.809712158743212" height="14.809712158743212" as="geometry" />
        </mxCell>
        <mxCell id="ymj67bPEhnFG9HvoRt_i-24" value="" style="ellipse;whiteSpace=wrap;html=1;aspect=fixed;strokeColor=#CC0000;strokeWidth=3;container=0;" vertex="1" parent="ymj67bPEhnFG9HvoRt_i-21">
          <mxGeometry x="44.70399999999995" y="72.60533486038958" width="14.809712158743212" height="14.809712158743212" as="geometry" />
        </mxCell>
        <mxCell id="ymj67bPEhnFG9HvoRt_i-25" value="" style="ellipse;whiteSpace=wrap;html=1;aspect=fixed;strokeColor=#CC0000;strokeWidth=3;container=0;" vertex="1" parent="ymj67bPEhnFG9HvoRt_i-21">
          <mxGeometry x="79.40800000000002" y="32.35904816442485" width="14.809712158743212" height="14.809712158743212" as="geometry" />
        </mxCell>
        <mxCell id="ymj67bPEhnFG9HvoRt_i-26" value="" style="ellipse;whiteSpace=wrap;html=1;aspect=fixed;strokeColor=#CC0000;strokeWidth=3;container=0;" vertex="1" parent="ymj67bPEhnFG9HvoRt_i-21">
          <mxGeometry x="106.40000000000003" y="65.89762041106223" width="14.809712158743212" height="14.809712158743212" as="geometry" />
        </mxCell>
        <mxCell id="ymj67bPEhnFG9HvoRt_i-27" value="" style="ellipse;whiteSpace=wrap;html=1;aspect=fixed;strokeColor=#CC0000;strokeWidth=3;container=0;" vertex="1" parent="ymj67bPEhnFG9HvoRt_i-21">
          <mxGeometry x="133.39199999999988" y="10" width="14.809712158743212" height="14.809712158743212" as="geometry" />
        </mxCell>
        <mxCell id="ymj67bPEhnFG9HvoRt_i-28" value="" style="ellipse;whiteSpace=wrap;html=1;aspect=fixed;strokeColor=#CC0000;strokeWidth=3;container=0;" vertex="1" parent="ymj67bPEhnFG9HvoRt_i-21">
          <mxGeometry x="148.81600000000003" y="97.2002878412568" width="14.809712158743212" height="14.809712158743212" as="geometry" />
        </mxCell>
        <mxCell id="ymj67bPEhnFG9HvoRt_i-29" value="" style="ellipse;whiteSpace=wrap;html=1;aspect=fixed;strokeColor=#CC0000;strokeWidth=3;container=0;" vertex="1" parent="ymj67bPEhnFG9HvoRt_i-21">
          <mxGeometry x="10" y="56.95400114529207" width="14.809712158743212" height="14.809712158743212" as="geometry" />
        </mxCell>
        <mxCell id="ymj67bPEhnFG9HvoRt_i-30" value="" style="endArrow=none;html=1;rounded=0;strokeWidth=3;exitX=0.017;exitY=0.313;exitDx=0;exitDy=0;exitPerimeter=0;" edge="1" parent="ymj67bPEhnFG9HvoRt_i-21" source="ymj67bPEhnFG9HvoRt_i-24">
          <mxGeometry width="50" height="50" relative="1" as="geometry">
            <mxPoint x="6.1440000000000055" y="90.49257339192945" as="sourcePoint" />
            <mxPoint x="25.423999999999978" y="68.1335252275046" as="targetPoint" />
          </mxGeometry>
        </mxCell>
        <mxCell id="ymj67bPEhnFG9HvoRt_i-31" value="" style="endArrow=none;html=1;rounded=0;strokeWidth=3;exitX=0.321;exitY=0.022;exitDx=0;exitDy=0;exitPerimeter=0;entryX=0.609;entryY=1;entryDx=0;entryDy=0;entryPerimeter=0;" edge="1" parent="ymj67bPEhnFG9HvoRt_i-21" source="ymj67bPEhnFG9HvoRt_i-24" target="ymj67bPEhnFG9HvoRt_i-23">
          <mxGeometry width="50" height="50" relative="1" as="geometry">
            <mxPoint x="56.6576" y="42.64421032006021" as="sourcePoint" />
            <mxPoint x="36.99200000000002" y="32.35904816442485" as="targetPoint" />
          </mxGeometry>
        </mxCell>
        <mxCell id="ymj67bPEhnFG9HvoRt_i-32" value="" style="endArrow=none;html=1;rounded=0;strokeWidth=3;exitX=0.027;exitY=0.324;exitDx=0;exitDy=0;exitPerimeter=0;entryX=0.974;entryY=0.663;entryDx=0;entryDy=0;entryPerimeter=0;" edge="1" parent="ymj67bPEhnFG9HvoRt_i-21" source="ymj67bPEhnFG9HvoRt_i-25" target="ymj67bPEhnFG9HvoRt_i-23">
          <mxGeometry width="50" height="50" relative="1" as="geometry">
            <mxPoint x="64.36960000000005" y="38.17240068717524" as="sourcePoint" />
            <mxPoint x="44.70399999999995" y="27.88723853153988" as="targetPoint" />
          </mxGeometry>
        </mxCell>
        <mxCell id="ymj67bPEhnFG9HvoRt_i-33" value="" style="endArrow=none;html=1;rounded=0;strokeWidth=3;exitX=0.906;exitY=0.204;exitDx=0;exitDy=0;exitPerimeter=0;" edge="1" parent="ymj67bPEhnFG9HvoRt_i-21" source="ymj67bPEhnFG9HvoRt_i-24" target="ymj67bPEhnFG9HvoRt_i-25">
          <mxGeometry width="50" height="50" relative="1" as="geometry">
            <mxPoint x="52.80159999999995" y="87.36230664890991" as="sourcePoint" />
            <mxPoint x="33.136000000000024" y="77.07714449327455" as="targetPoint" />
          </mxGeometry>
        </mxCell>
        <mxCell id="ymj67bPEhnFG9HvoRt_i-34" value="" style="endArrow=none;html=1;rounded=0;strokeWidth=3;exitX=1.003;exitY=0.597;exitDx=0;exitDy=0;exitPerimeter=0;entryX=-0.006;entryY=0.597;entryDx=0;entryDy=0;entryPerimeter=0;" edge="1" parent="ymj67bPEhnFG9HvoRt_i-21" source="ymj67bPEhnFG9HvoRt_i-24" target="ymj67bPEhnFG9HvoRt_i-26">
          <mxGeometry width="50" height="50" relative="1" as="geometry">
            <mxPoint x="62.44159999999994" y="80.65459219958257" as="sourcePoint" />
            <mxPoint x="85.57759999999996" y="52.482191512407326" as="targetPoint" />
          </mxGeometry>
        </mxCell>
        <mxCell id="ymj67bPEhnFG9HvoRt_i-35" value="" style="endArrow=none;html=1;rounded=0;strokeWidth=3;entryX=0;entryY=0;entryDx=0;entryDy=0;" edge="1" parent="ymj67bPEhnFG9HvoRt_i-21" source="ymj67bPEhnFG9HvoRt_i-25" target="ymj67bPEhnFG9HvoRt_i-26">
          <mxGeometry width="50" height="50" relative="1" as="geometry">
            <mxPoint x="63.983999999999924" y="87.80948761219838" as="sourcePoint" />
            <mxPoint x="111.02719999999988" y="83.78485894260189" as="targetPoint" />
          </mxGeometry>
        </mxCell>
        <mxCell id="ymj67bPEhnFG9HvoRt_i-36" value="" style="endArrow=none;html=1;rounded=0;strokeWidth=3;exitX=0.975;exitY=0.358;exitDx=0;exitDy=0;exitPerimeter=0;entryX=0.04;entryY=0.72;entryDx=0;entryDy=0;entryPerimeter=0;" edge="1" parent="ymj67bPEhnFG9HvoRt_i-21" source="ymj67bPEhnFG9HvoRt_i-25" target="ymj67bPEhnFG9HvoRt_i-27">
          <mxGeometry width="50" height="50" relative="1" as="geometry">
            <mxPoint x="62.44159999999994" y="80.65459219958257" as="sourcePoint" />
            <mxPoint x="85.57759999999996" y="52.482191512407326" as="targetPoint" />
          </mxGeometry>
        </mxCell>
        <mxCell id="ymj67bPEhnFG9HvoRt_i-37" value="" style="endArrow=none;html=1;rounded=0;strokeWidth=3;entryX=0.923;entryY=0.216;entryDx=0;entryDy=0;exitX=0.292;exitY=0.963;exitDx=0;exitDy=0;exitPerimeter=0;entryPerimeter=0;" edge="1" parent="ymj67bPEhnFG9HvoRt_i-21" source="ymj67bPEhnFG9HvoRt_i-27" target="ymj67bPEhnFG9HvoRt_i-26">
          <mxGeometry width="50" height="50" relative="1" as="geometry">
            <mxPoint x="95.98880000000008" y="52.482191512407326" as="sourcePoint" />
            <mxPoint x="112.56959999999998" y="73.05251582367805" as="targetPoint" />
          </mxGeometry>
        </mxCell>
        <mxCell id="ymj67bPEhnFG9HvoRt_i-38" value="" style="endArrow=none;html=1;rounded=0;strokeWidth=3;exitX=1.012;exitY=0.625;exitDx=0;exitDy=0;exitPerimeter=0;entryX=0.073;entryY=0.237;entryDx=0;entryDy=0;entryPerimeter=0;" edge="1" parent="ymj67bPEhnFG9HvoRt_i-21" source="ymj67bPEhnFG9HvoRt_i-26" target="ymj67bPEhnFG9HvoRt_i-28">
          <mxGeometry width="50" height="50" relative="1" as="geometry">
            <mxPoint x="95.98880000000008" y="52.482191512407326" as="sourcePoint" />
            <mxPoint x="160.3839999999999" y="94.96438302481442" as="targetPoint" />
          </mxGeometry>
        </mxCell>
        <mxCell id="ymj67bPEhnFG9HvoRt_i-39" value="" style="endArrow=none;html=1;rounded=0;strokeWidth=3;entryX=0.308;entryY=0.021;entryDx=0;entryDy=0;exitX=0.755;exitY=0.968;exitDx=0;exitDy=0;exitPerimeter=0;entryPerimeter=0;" edge="1" parent="ymj67bPEhnFG9HvoRt_i-21" source="ymj67bPEhnFG9HvoRt_i-27" target="ymj67bPEhnFG9HvoRt_i-28">
          <mxGeometry width="50" height="50" relative="1" as="geometry">
            <mxPoint x="141.87519999999995" y="31.911867201136374" as="sourcePoint" />
            <mxPoint x="124.52320000000003" y="74.39405871354347" as="targetPoint" />
          </mxGeometry>
        </mxCell>
        <mxCell id="ymj67bPEhnFG9HvoRt_i-40" value="" style="endArrow=none;html=1;rounded=0;strokeWidth=3;exitX=1;exitY=1;exitDx=0;exitDy=0;entryX=0.018;entryY=0.633;entryDx=0;entryDy=0;entryPerimeter=0;" edge="1" parent="ymj67bPEhnFG9HvoRt_i-21" source="ymj67bPEhnFG9HvoRt_i-24" target="ymj67bPEhnFG9HvoRt_i-28">
          <mxGeometry width="50" height="50" relative="1" as="geometry">
            <mxPoint x="63.983999999999924" y="87.80948761219838" as="sourcePoint" />
            <mxPoint x="168.096" y="99.4361926576994" as="targetPoint" />
          </mxGeometry>
        </mxCell>
        <mxCell id="ymj67bPEhnFG9HvoRt_i-41" value="&lt;b style=&quot;font-size: 22px;&quot;&gt;And Inverter Graph&lt;/b&gt;" style="shape=parallelogram;perimeter=parallelogramPerimeter;whiteSpace=wrap;html=1;fixedSize=1;fillColor=#d5e8d4;strokeColor=#82b366;strokeWidth=3;" vertex="1" parent="1">
          <mxGeometry x="-1832.8000000000002" y="-2163.73" width="185.98" height="70" as="geometry" />
        </mxCell>
        <mxCell id="ymj67bPEhnFG9HvoRt_i-42" value="" style="group" vertex="1" connectable="0" parent="1">
          <mxGeometry x="-1825.79" y="-1809.6" width="139.57" height="113.60000000000002" as="geometry" />
        </mxCell>
        <mxCell id="ymj67bPEhnFG9HvoRt_i-43" value="" style="rounded=1;whiteSpace=wrap;html=1;fillColor=#f5f5f5;fontColor=#333333;strokeColor=#666666;strokeWidth=4;shadow=1;container=0;" vertex="1" parent="ymj67bPEhnFG9HvoRt_i-42">
          <mxGeometry width="139.57" height="113.6" as="geometry" />
        </mxCell>
        <mxCell id="ymj67bPEhnFG9HvoRt_i-44" value="" style="group" vertex="1" connectable="0" parent="ymj67bPEhnFG9HvoRt_i-42">
          <mxGeometry x="9.260000000000105" y="16.090000000000032" width="129.57" height="93.6" as="geometry" />
        </mxCell>
        <mxCell id="ymj67bPEhnFG9HvoRt_i-45" value="" style="ellipse;whiteSpace=wrap;html=1;aspect=fixed;strokeColor=#CC0000;strokeWidth=3;container=0;" vertex="1" parent="ymj67bPEhnFG9HvoRt_i-44">
          <mxGeometry x="38.786666666666605" y="22.816814986277933" width="15.11291803842168" height="15.11291803842168" as="geometry" />
        </mxCell>
        <mxCell id="ymj67bPEhnFG9HvoRt_i-46" value="" style="ellipse;whiteSpace=wrap;html=1;aspect=fixed;strokeColor=#CC0000;strokeWidth=3;container=0;" vertex="1" parent="ymj67bPEhnFG9HvoRt_i-44">
          <mxGeometry x="99.1214814814815" width="15.11291803842168" height="15.11291803842168" as="geometry" />
        </mxCell>
        <mxCell id="ymj67bPEhnFG9HvoRt_i-47" value="" style="endArrow=none;html=1;rounded=0;strokeWidth=3;exitX=0.906;exitY=0.204;exitDx=0;exitDy=0;exitPerimeter=0;" edge="1" parent="ymj67bPEhnFG9HvoRt_i-44" source="ymj67bPEhnFG9HvoRt_i-49" target="ymj67bPEhnFG9HvoRt_i-45">
          <mxGeometry width="50" height="50" relative="1" as="geometry">
            <mxPoint x="9.050222222222263" y="78.94617985252181" as="sourcePoint" />
            <mxPoint x="-12.928888888888968" y="68.450444958834" as="targetPoint" />
          </mxGeometry>
        </mxCell>
        <mxCell id="ymj67bPEhnFG9HvoRt_i-48" value="" style="endArrow=none;html=1;rounded=0;strokeWidth=3;entryX=0.923;entryY=0.216;entryDx=0;entryDy=0;exitX=0.292;exitY=0.963;exitDx=0;exitDy=0;exitPerimeter=0;entryPerimeter=0;" edge="1" parent="ymj67bPEhnFG9HvoRt_i-44" source="ymj67bPEhnFG9HvoRt_i-46" target="ymj67bPEhnFG9HvoRt_i-50">
          <mxGeometry width="50" height="50" relative="1" as="geometry">
            <mxPoint x="57.31807407407409" y="43.35194847392811" as="sourcePoint" />
            <mxPoint x="75.84948148148156" y="64.34341826130397" as="targetPoint" />
          </mxGeometry>
        </mxCell>
        <mxCell id="ymj67bPEhnFG9HvoRt_i-49" value="" style="ellipse;whiteSpace=wrap;html=1;aspect=fixed;strokeColor=#CC0000;strokeWidth=3;container=0;" vertex="1" parent="ymj67bPEhnFG9HvoRt_i-44">
          <mxGeometry y="63.88708196157829" width="15.11291803842168" height="15.11291803842168" as="geometry" />
        </mxCell>
        <mxCell id="ymj67bPEhnFG9HvoRt_i-50" value="" style="ellipse;whiteSpace=wrap;html=1;aspect=fixed;strokeColor=#CC0000;strokeWidth=3;container=0;" vertex="1" parent="ymj67bPEhnFG9HvoRt_i-44">
          <mxGeometry x="68.95407407407404" y="57.04203746569496" width="15.11291803842168" height="15.11291803842168" as="geometry" />
        </mxCell>
        <mxCell id="ymj67bPEhnFG9HvoRt_i-51" value="" style="endArrow=none;html=1;rounded=0;strokeWidth=3;exitX=1.003;exitY=0.597;exitDx=0;exitDy=0;exitPerimeter=0;entryX=-0.006;entryY=0.597;entryDx=0;entryDy=0;entryPerimeter=0;" edge="1" parent="ymj67bPEhnFG9HvoRt_i-44" source="ymj67bPEhnFG9HvoRt_i-49" target="ymj67bPEhnFG9HvoRt_i-50">
          <mxGeometry width="50" height="50" relative="1" as="geometry">
            <mxPoint x="19.82429629629633" y="72.10113535663842" as="sourcePoint" />
            <mxPoint x="45.682074074074116" y="43.35194847392811" as="targetPoint" />
          </mxGeometry>
        </mxCell>
        <mxCell id="ymj67bPEhnFG9HvoRt_i-52" value="" style="endArrow=none;html=1;rounded=0;strokeWidth=3;entryX=0;entryY=0;entryDx=0;entryDy=0;" edge="1" parent="ymj67bPEhnFG9HvoRt_i-44" source="ymj67bPEhnFG9HvoRt_i-45" target="ymj67bPEhnFG9HvoRt_i-50">
          <mxGeometry width="50" height="50" relative="1" as="geometry">
            <mxPoint x="21.548148148148133" y="79.40251615224734" as="sourcePoint" />
            <mxPoint x="74.12562962962961" y="75.29548945471731" as="targetPoint" />
          </mxGeometry>
        </mxCell>
        <mxCell id="ymj67bPEhnFG9HvoRt_i-53" style="rounded=0;orthogonalLoop=1;jettySize=auto;html=1;exitX=1;exitY=0;exitDx=0;exitDy=0;entryX=0;entryY=0.5;entryDx=0;entryDy=0;endArrow=none;endFill=0;strokeWidth=3;" edge="1" parent="ymj67bPEhnFG9HvoRt_i-44" source="ymj67bPEhnFG9HvoRt_i-45" target="ymj67bPEhnFG9HvoRt_i-46">
          <mxGeometry relative="1" as="geometry" />
        </mxCell>
        <mxCell id="ymj67bPEhnFG9HvoRt_i-54" value="&lt;div&gt;&lt;b&gt;&lt;font style=&quot;font-size: 22px;&quot;&gt;Gate Level Verilog&lt;/font&gt;&lt;/b&gt;&lt;b style=&quot;background-color: initial;&quot;&gt;&lt;font style=&quot;font-size: 22px;&quot;&gt;&amp;nbsp;Sunbetwrks&lt;/font&gt;&lt;/b&gt;&lt;/div&gt;" style="shape=parallelogram;perimeter=parallelogramPerimeter;whiteSpace=wrap;html=1;fixedSize=1;fillColor=#d5e8d4;strokeColor=#82b366;strokeWidth=3;" vertex="1" parent="1">
          <mxGeometry x="-1878.3399999999997" y="-1876" width="250" height="60" as="geometry" />
        </mxCell>
        <mxCell id="ymj67bPEhnFG9HvoRt_i-55" value="&lt;div&gt;&lt;b style=&quot;font-size: 22px;&quot;&gt;Optimized Subnetworks&lt;/b&gt;&lt;br&gt;&lt;/div&gt;" style="shape=parallelogram;perimeter=parallelogramPerimeter;whiteSpace=wrap;html=1;fixedSize=1;fillColor=#d5e8d4;strokeColor=#82b366;strokeWidth=3;" vertex="1" parent="1">
          <mxGeometry x="-1658.9999999999998" y="-1336" width="185.98" height="60" as="geometry" />
        </mxCell>
        <mxCell id="ymj67bPEhnFG9HvoRt_i-56" value="" style="group" vertex="1" connectable="0" parent="1">
          <mxGeometry x="-2006.999293849658" y="-1405.9987310499719" width="271.30523917995447" height="257.4156260527793" as="geometry" />
        </mxCell>
        <mxCell id="ymj67bPEhnFG9HvoRt_i-57" value="" style="rounded=1;whiteSpace=wrap;html=1;fillColor=#f5f5f5;fontColor=#333333;strokeColor=#666666;strokeWidth=4;shadow=1;container=0;" vertex="1" parent="ymj67bPEhnFG9HvoRt_i-56">
          <mxGeometry width="118.90660592255125" height="111.70129140932059" as="geometry" />
        </mxCell>
        <mxCell id="ymj67bPEhnFG9HvoRt_i-58" value="" style="ellipse;whiteSpace=wrap;html=1;aspect=fixed;strokeColor=#bcb8b8;strokeWidth=3;container=0;" vertex="1" parent="ymj67bPEhnFG9HvoRt_i-56">
          <mxGeometry x="16.514806378132107" y="5.879015337332703" width="19.470087519482075" height="19.470087519482075" as="geometry" />
        </mxCell>
        <mxCell id="ymj67bPEhnFG9HvoRt_i-59" value="" style="ellipse;whiteSpace=wrap;html=1;aspect=fixed;strokeColor=#bcb8b8;strokeWidth=3;container=0;" vertex="1" parent="ymj67bPEhnFG9HvoRt_i-56">
          <mxGeometry x="38.534548215641735" y="82.30621472265727" width="19.470087519482075" height="19.470087519482075" as="geometry" />
        </mxCell>
        <mxCell id="ymj67bPEhnFG9HvoRt_i-60" value="" style="ellipse;whiteSpace=wrap;html=1;aspect=fixed;strokeColor=#bcb8b8;strokeWidth=3;container=0;" vertex="1" parent="ymj67bPEhnFG9HvoRt_i-56">
          <mxGeometry x="88.07896735003806" y="29.395076686663288" width="19.470087519482075" height="19.470087519482075" as="geometry" />
        </mxCell>
        <mxCell id="ymj67bPEhnFG9HvoRt_i-61" value="" style="endArrow=none;html=1;rounded=0;strokeWidth=3;exitX=0.321;exitY=0.022;exitDx=0;exitDy=0;exitPerimeter=0;entryX=0.609;entryY=1;entryDx=0;entryDy=0;entryPerimeter=0;strokeColor=#bcb8b8;" edge="1" parent="ymj67bPEhnFG9HvoRt_i-56" source="ymj67bPEhnFG9HvoRt_i-59" target="ymj67bPEhnFG9HvoRt_i-58">
          <mxGeometry width="50" height="50" relative="1" as="geometry">
            <mxPoint x="55.59984813971164" y="42.91681196252841" as="sourcePoint" />
            <mxPoint x="27.52467729688692" y="29.395076686663288" as="targetPoint" />
          </mxGeometry>
        </mxCell>
        <mxCell id="ymj67bPEhnFG9HvoRt_i-62" value="" style="endArrow=none;html=1;rounded=0;strokeWidth=3;exitX=0.027;exitY=0.324;exitDx=0;exitDy=0;exitPerimeter=0;entryX=0.974;entryY=0.663;entryDx=0;entryDy=0;entryPerimeter=0;strokeColor=#bcb8b8;" edge="1" parent="ymj67bPEhnFG9HvoRt_i-56" source="ymj67bPEhnFG9HvoRt_i-60" target="ymj67bPEhnFG9HvoRt_i-58">
          <mxGeometry width="50" height="50" relative="1" as="geometry">
            <mxPoint x="66.60971905846645" y="37.037796625195824" as="sourcePoint" />
            <mxPoint x="38.534548215641735" y="23.5160613493307" as="targetPoint" />
          </mxGeometry>
        </mxCell>
        <mxCell id="ymj67bPEhnFG9HvoRt_i-63" value="" style="endArrow=none;html=1;rounded=0;strokeWidth=3;exitX=0.906;exitY=0.204;exitDx=0;exitDy=0;exitPerimeter=0;strokeColor=#bcb8b8;" edge="1" parent="ymj67bPEhnFG9HvoRt_i-56" source="ymj67bPEhnFG9HvoRt_i-59" target="ymj67bPEhnFG9HvoRt_i-60">
          <mxGeometry width="50" height="50" relative="1" as="geometry">
            <mxPoint x="50.094912680334346" y="101.7069653358551" as="sourcePoint" />
            <mxPoint x="22.019741837509628" y="88.18523005998998" as="targetPoint" />
          </mxGeometry>
        </mxCell>
        <mxCell id="ymj67bPEhnFG9HvoRt_i-64" value="" style="rounded=1;whiteSpace=wrap;html=1;fillColor=#f5f5f5;fontColor=#333333;strokeColor=#666666;strokeWidth=4;shadow=1;container=0;" vertex="1" parent="ymj67bPEhnFG9HvoRt_i-56">
          <mxGeometry x="66.05922551252866" y="52.91449747332956" width="125.5125284738041" height="131.64795058955642" as="geometry" />
        </mxCell>
        <mxCell id="ymj67bPEhnFG9HvoRt_i-65" value="" style="ellipse;whiteSpace=wrap;html=1;aspect=fixed;strokeColor=#BCB8B8;strokeWidth=3;container=0;" vertex="1" parent="ymj67bPEhnFG9HvoRt_i-56">
          <mxGeometry x="81.47304479878517" y="95.7766209210921" width="20.278645971287812" height="20.278645971287812" as="geometry" />
        </mxCell>
        <mxCell id="ymj67bPEhnFG9HvoRt_i-66" value="" style="ellipse;whiteSpace=wrap;html=1;aspect=fixed;strokeColor=#BCB8B8;strokeWidth=3;container=0;" vertex="1" parent="ymj67bPEhnFG9HvoRt_i-56">
          <mxGeometry x="120.0075930144269" y="141.70032461512346" width="20.278645971287812" height="20.278645971287812" as="geometry" />
        </mxCell>
        <mxCell id="ymj67bPEhnFG9HvoRt_i-67" value="" style="ellipse;whiteSpace=wrap;html=1;aspect=fixed;strokeColor=#BCB8B8;strokeWidth=3;container=0;" vertex="1" parent="ymj67bPEhnFG9HvoRt_i-56">
          <mxGeometry x="158.5421412300684" y="65.1608184584046" width="20.278645971287812" height="20.278645971287812" as="geometry" />
        </mxCell>
        <mxCell id="ymj67bPEhnFG9HvoRt_i-68" value="" style="endArrow=none;html=1;rounded=0;strokeWidth=3;entryX=0;entryY=0;entryDx=0;entryDy=0;strokeColor=#BCB8B8;" edge="1" parent="ymj67bPEhnFG9HvoRt_i-56" source="ymj67bPEhnFG9HvoRt_i-65" target="ymj67bPEhnFG9HvoRt_i-66">
          <mxGeometry width="50" height="50" relative="1" as="geometry">
            <mxPoint x="59.45330296127577" y="171.7038110285573" as="sourcePoint" />
            <mxPoint x="126.61351556567979" y="166.19296658527355" as="targetPoint" />
          </mxGeometry>
        </mxCell>
        <mxCell id="ymj67bPEhnFG9HvoRt_i-69" value="" style="endArrow=none;html=1;rounded=0;strokeWidth=3;exitX=0.975;exitY=0.358;exitDx=0;exitDy=0;exitPerimeter=0;entryX=0.04;entryY=0.72;entryDx=0;entryDy=0;entryPerimeter=0;strokeColor=#BCB8B8;" edge="1" parent="ymj67bPEhnFG9HvoRt_i-56" source="ymj67bPEhnFG9HvoRt_i-65" target="ymj67bPEhnFG9HvoRt_i-67">
          <mxGeometry width="50" height="50" relative="1" as="geometry">
            <mxPoint x="57.251328777524805" y="161.90675424049732" as="sourcePoint" />
            <mxPoint x="90.28094153378902" y="123.3308431375109" as="targetPoint" />
          </mxGeometry>
        </mxCell>
        <mxCell id="ymj67bPEhnFG9HvoRt_i-70" value="" style="endArrow=none;html=1;rounded=0;strokeWidth=3;entryX=0.923;entryY=0.216;entryDx=0;entryDy=0;exitX=0.292;exitY=0.963;exitDx=0;exitDy=0;exitPerimeter=0;entryPerimeter=0;strokeColor=#BCB8B8;" edge="1" parent="ymj67bPEhnFG9HvoRt_i-56" source="ymj67bPEhnFG9HvoRt_i-67" target="ymj67bPEhnFG9HvoRt_i-66">
          <mxGeometry width="50" height="50" relative="1" as="geometry">
            <mxPoint x="105.14426727410796" y="123.3308431375109" as="sourcePoint" />
            <mxPoint x="128.81548974943053" y="151.49738140318345" as="targetPoint" />
          </mxGeometry>
        </mxCell>
        <mxCell id="ymj67bPEhnFG9HvoRt_i-71" value="" style="rounded=1;whiteSpace=wrap;html=1;fillColor=#f5f5f5;fontColor=#333333;strokeColor=#666666;strokeWidth=4;shadow=1;container=0;" vertex="1" parent="ymj67bPEhnFG9HvoRt_i-56">
          <mxGeometry x="165.61047835990894" y="97.84235261089282" width="105.69476082004553" height="159.57327344188653" as="geometry" />
        </mxCell>
        <mxCell id="ymj67bPEhnFG9HvoRt_i-72" value="" style="ellipse;whiteSpace=wrap;html=1;aspect=fixed;strokeColor=#BCB8B8;strokeWidth=3;container=0;" vertex="1" parent="ymj67bPEhnFG9HvoRt_i-56">
          <mxGeometry x="178.82232346241472" y="182.21247697325202" width="18.49658314350797" height="18.49658314350797" as="geometry" />
        </mxCell>
        <mxCell id="ymj67bPEhnFG9HvoRt_i-73" value="" style="ellipse;whiteSpace=wrap;html=1;aspect=fixed;strokeColor=#BCB8B8;strokeWidth=3;container=0;" vertex="1" parent="ymj67bPEhnFG9HvoRt_i-56">
          <mxGeometry x="211.19134396355366" y="105.8210162829871" width="18.49658314350797" height="18.49658314350797" as="geometry" />
        </mxCell>
        <mxCell id="ymj67bPEhnFG9HvoRt_i-74" value="" style="ellipse;whiteSpace=wrap;html=1;aspect=fixed;strokeColor=#BCB8B8;strokeWidth=3;container=0;" vertex="1" parent="ymj67bPEhnFG9HvoRt_i-56">
          <mxGeometry x="229.68792710706157" y="224.99169495980027" width="18.49658314350797" height="18.49658314350797" as="geometry" />
        </mxCell>
        <mxCell id="ymj67bPEhnFG9HvoRt_i-75" value="" style="endArrow=none;html=1;rounded=0;strokeWidth=3;entryX=0.923;entryY=0.216;entryDx=0;entryDy=0;exitX=0.292;exitY=0.963;exitDx=0;exitDy=0;exitPerimeter=0;entryPerimeter=0;strokeColor=#BCB8B8;" edge="1" parent="ymj67bPEhnFG9HvoRt_i-56" source="ymj67bPEhnFG9HvoRt_i-73" target="ymj67bPEhnFG9HvoRt_i-72">
          <mxGeometry width="50" height="50" relative="1" as="geometry">
            <mxPoint x="166.33712984054682" y="163.87852640758842" as="sourcePoint" />
            <mxPoint x="186.22095671981788" y="191.9905839416058" as="targetPoint" />
          </mxGeometry>
        </mxCell>
        <mxCell id="ymj67bPEhnFG9HvoRt_i-76" value="" style="endArrow=none;html=1;rounded=0;strokeWidth=3;exitX=1.012;exitY=0.625;exitDx=0;exitDy=0;exitPerimeter=0;entryX=0.073;entryY=0.237;entryDx=0;entryDy=0;entryPerimeter=0;strokeColor=#BCB8B8;" edge="1" parent="ymj67bPEhnFG9HvoRt_i-56" source="ymj67bPEhnFG9HvoRt_i-72" target="ymj67bPEhnFG9HvoRt_i-74">
          <mxGeometry width="50" height="50" relative="1" as="geometry">
            <mxPoint x="166.33712984054682" y="163.87852640758842" as="sourcePoint" />
            <mxPoint x="243.5603644646926" y="221.93603653218975" as="targetPoint" />
          </mxGeometry>
        </mxCell>
        <mxCell id="ymj67bPEhnFG9HvoRt_i-77" value="" style="endArrow=none;html=1;rounded=0;strokeWidth=3;entryX=0.308;entryY=0.021;entryDx=0;entryDy=0;exitX=0.755;exitY=0.968;exitDx=0;exitDy=0;exitPerimeter=0;entryPerimeter=0;strokeColor=#BCB8B8;" edge="1" parent="ymj67bPEhnFG9HvoRt_i-56" source="ymj67bPEhnFG9HvoRt_i-73" target="ymj67bPEhnFG9HvoRt_i-74">
          <mxGeometry width="50" height="50" relative="1" as="geometry">
            <mxPoint x="221.36446469248312" y="135.76646887357094" as="sourcePoint" />
            <mxPoint x="200.55580865603656" y="193.82397899817215" as="targetPoint" />
          </mxGeometry>
        </mxCell>
        <mxCell id="ymj67bPEhnFG9HvoRt_i-78" value="" style="rounded=1;whiteSpace=wrap;html=1;strokeWidth=4;fillColor=#fff2cc;strokeColor=#d6b656;shadow=1;container=0;" vertex="1" parent="1">
          <mxGeometry x="-2007.0014350797264" y="-1646.0041998877036" width="150" height="190" as="geometry" />
        </mxCell>
        <mxCell id="ymj67bPEhnFG9HvoRt_i-79" value="&lt;font size=&quot;1&quot; style=&quot;&quot;&gt;&lt;b style=&quot;font-size: 18px;&quot;&gt;RL Agent&lt;/b&gt;&lt;/font&gt;" style="rounded=0;whiteSpace=wrap;html=1;fillColor=#d0cee2;strokeColor=#56517e;strokeWidth=3;shadow=1;container=0;" vertex="1" parent="1">
          <mxGeometry x="-1989.8414350797266" y="-1515.6641998877035" width="115.69" height="43" as="geometry" />
        </mxCell>
        <mxCell id="ymj67bPEhnFG9HvoRt_i-80" value="&lt;font size=&quot;1&quot; style=&quot;&quot;&gt;&lt;b style=&quot;font-size: 18px;&quot;&gt;Logic Optimization Environment&lt;/b&gt;&lt;/font&gt;" style="rounded=0;whiteSpace=wrap;html=1;fillColor=#cce5ff;strokeColor=#36393d;strokeWidth=3;shadow=1;container=0;" vertex="1" parent="1">
          <mxGeometry x="-1996.5014350797264" y="-1628.5841998877036" width="129" height="70.45" as="geometry" />
        </mxCell>
        <mxCell id="ymj67bPEhnFG9HvoRt_i-81" value="" style="shape=flexArrow;endArrow=classic;html=1;rounded=0;strokeWidth=2;endWidth=10.72840790842872;endSize=4.44516129032258;width=7.741935483870967;shadow=1;fillColor=#647687;strokeColor=#314354;" edge="1" parent="1">
          <mxGeometry width="50" height="50" relative="1" as="geometry">
            <mxPoint x="-1957.0925512528474" y="-1551.5637170129141" as="sourcePoint" />
            <mxPoint x="-1957.0925512528474" y="-1523.638394160584" as="targetPoint" />
          </mxGeometry>
        </mxCell>
        <mxCell id="ymj67bPEhnFG9HvoRt_i-82" value="" style="shape=flexArrow;endArrow=classic;html=1;rounded=0;strokeWidth=2;endWidth=10.72840790842872;endSize=4.44516129032258;width=7.741935483870967;shadow=1;fillColor=#647687;strokeColor=#314354;" edge="1" parent="1">
          <mxGeometry width="50" height="50" relative="1" as="geometry">
            <mxPoint x="-1904.2451708428243" y="-1523.638394160584" as="sourcePoint" />
            <mxPoint x="-1904.2451708428243" y="-1551.5637170129141" as="targetPoint" />
          </mxGeometry>
        </mxCell>
        <mxCell id="ymj67bPEhnFG9HvoRt_i-83" value="" style="rounded=1;whiteSpace=wrap;html=1;strokeWidth=4;fillColor=#fff2cc;strokeColor=#d6b656;shadow=1;container=0;" vertex="1" parent="1">
          <mxGeometry x="-1827.0014350797264" y="-1646.0041998877036" width="150" height="190" as="geometry" />
        </mxCell>
        <mxCell id="ymj67bPEhnFG9HvoRt_i-84" value="&lt;font size=&quot;1&quot; style=&quot;&quot;&gt;&lt;b style=&quot;font-size: 18px;&quot;&gt;RL Agent&lt;/b&gt;&lt;/font&gt;" style="rounded=0;whiteSpace=wrap;html=1;fillColor=#d0cee2;strokeColor=#56517e;strokeWidth=3;shadow=1;container=0;" vertex="1" parent="1">
          <mxGeometry x="-1809.8414350797266" y="-1515.6641998877035" width="115.69" height="43" as="geometry" />
        </mxCell>
        <mxCell id="ymj67bPEhnFG9HvoRt_i-85" value="&lt;font size=&quot;1&quot; style=&quot;&quot;&gt;&lt;b style=&quot;font-size: 18px;&quot;&gt;Logic Optimization Environment&lt;/b&gt;&lt;/font&gt;" style="rounded=0;whiteSpace=wrap;html=1;fillColor=#cce5ff;strokeColor=#36393d;strokeWidth=3;shadow=1;container=0;" vertex="1" parent="1">
          <mxGeometry x="-1816.5014350797264" y="-1628.5841998877036" width="129" height="70.45" as="geometry" />
        </mxCell>
        <mxCell id="ymj67bPEhnFG9HvoRt_i-86" value="" style="shape=flexArrow;endArrow=classic;html=1;rounded=0;strokeWidth=2;endWidth=10.72840790842872;endSize=4.44516129032258;width=7.741935483870967;shadow=1;fillColor=#647687;strokeColor=#314354;" edge="1" parent="1">
          <mxGeometry width="50" height="50" relative="1" as="geometry">
            <mxPoint x="-1777.0925512528474" y="-1551.5637170129141" as="sourcePoint" />
            <mxPoint x="-1777.0925512528474" y="-1523.638394160584" as="targetPoint" />
          </mxGeometry>
        </mxCell>
        <mxCell id="ymj67bPEhnFG9HvoRt_i-87" value="" style="shape=flexArrow;endArrow=classic;html=1;rounded=0;strokeWidth=2;endWidth=10.72840790842872;endSize=4.44516129032258;width=7.741935483870967;shadow=1;fillColor=#647687;strokeColor=#314354;" edge="1" parent="1">
          <mxGeometry width="50" height="50" relative="1" as="geometry">
            <mxPoint x="-1724.2451708428246" y="-1523.638394160584" as="sourcePoint" />
            <mxPoint x="-1724.2451708428246" y="-1551.5637170129141" as="targetPoint" />
          </mxGeometry>
        </mxCell>
        <mxCell id="ymj67bPEhnFG9HvoRt_i-88" value="" style="rounded=1;whiteSpace=wrap;html=1;strokeWidth=4;fillColor=#fff2cc;strokeColor=#d6b656;shadow=1;container=0;" vertex="1" parent="1">
          <mxGeometry x="-1607.3614350797266" y="-1648.7341998877037" width="150" height="190" as="geometry" />
        </mxCell>
        <mxCell id="ymj67bPEhnFG9HvoRt_i-89" value="&lt;font size=&quot;1&quot; style=&quot;&quot;&gt;&lt;b style=&quot;font-size: 18px;&quot;&gt;RL Agent&lt;/b&gt;&lt;/font&gt;" style="rounded=0;whiteSpace=wrap;html=1;fillColor=#d0cee2;strokeColor=#56517e;strokeWidth=3;shadow=1;container=0;" vertex="1" parent="1">
          <mxGeometry x="-1590.2014350797265" y="-1518.3941998877035" width="115.69" height="43" as="geometry" />
        </mxCell>
        <mxCell id="ymj67bPEhnFG9HvoRt_i-90" value="&lt;font size=&quot;1&quot; style=&quot;&quot;&gt;&lt;b style=&quot;font-size: 18px;&quot;&gt;Logic Optimization Environment&lt;/b&gt;&lt;/font&gt;" style="rounded=0;whiteSpace=wrap;html=1;fillColor=#cce5ff;strokeColor=#36393d;strokeWidth=3;shadow=1;container=0;" vertex="1" parent="1">
          <mxGeometry x="-1596.8614350797266" y="-1631.3141998877036" width="129" height="70.45" as="geometry" />
        </mxCell>
        <mxCell id="ymj67bPEhnFG9HvoRt_i-91" value="" style="shape=flexArrow;endArrow=classic;html=1;rounded=0;strokeWidth=2;endWidth=10.72840790842872;endSize=4.44516129032258;width=7.741935483870967;shadow=1;fillColor=#647687;strokeColor=#314354;" edge="1" parent="1">
          <mxGeometry width="50" height="50" relative="1" as="geometry">
            <mxPoint x="-1557.4525512528473" y="-1554.2937170129142" as="sourcePoint" />
            <mxPoint x="-1557.4525512528473" y="-1526.368394160584" as="targetPoint" />
          </mxGeometry>
        </mxCell>
        <mxCell id="ymj67bPEhnFG9HvoRt_i-92" value="" style="shape=flexArrow;endArrow=classic;html=1;rounded=0;strokeWidth=2;endWidth=10.72840790842872;endSize=4.44516129032258;width=7.741935483870967;shadow=1;fillColor=#647687;strokeColor=#314354;" edge="1" parent="1">
          <mxGeometry width="50" height="50" relative="1" as="geometry">
            <mxPoint x="-1504.6051708428245" y="-1526.368394160584" as="sourcePoint" />
            <mxPoint x="-1504.6051708428245" y="-1554.2937170129142" as="targetPoint" />
          </mxGeometry>
        </mxCell>
        <mxCell id="ymj67bPEhnFG9HvoRt_i-93" value="" style="endArrow=classic;html=1;rounded=0;strokeWidth=3;entryX=0.551;entryY=0.004;entryDx=0;entryDy=0;entryPerimeter=0;exitX=0.547;exitY=1.013;exitDx=0;exitDy=0;exitPerimeter=0;" edge="1" parent="1" source="ymj67bPEhnFG9HvoRt_i-100" target="ymj67bPEhnFG9HvoRt_i-78">
          <mxGeometry width="50" height="50" relative="1" as="geometry">
            <mxPoint x="-1924.51708428246" y="-1693.4241998877035" as="sourcePoint" />
            <mxPoint x="-1924.51708428246" y="-1658.7170129140932" as="targetPoint" />
          </mxGeometry>
        </mxCell>
        <mxCell id="ymj67bPEhnFG9HvoRt_i-94" value="" style="endArrow=classic;html=1;rounded=0;strokeWidth=3;exitX=0.5;exitY=1;exitDx=0;exitDy=0;entryX=0.475;entryY=0.01;entryDx=0;entryDy=0;entryPerimeter=0;" edge="1" parent="1" source="ymj67bPEhnFG9HvoRt_i-43" target="ymj67bPEhnFG9HvoRt_i-83">
          <mxGeometry width="50" height="50" relative="1" as="geometry">
            <mxPoint x="-1755.70138952164" y="-1649.5415496911846" as="sourcePoint" />
            <mxPoint x="-1755.972232346241" y="-1618.8236945536214" as="targetPoint" />
          </mxGeometry>
        </mxCell>
        <mxCell id="ymj67bPEhnFG9HvoRt_i-95" value="" style="endArrow=classic;html=1;rounded=0;strokeWidth=3;entryX=0.5;entryY=0;entryDx=0;entryDy=0;exitX=0.533;exitY=1.008;exitDx=0;exitDy=0;exitPerimeter=0;" edge="1" parent="1" source="ymj67bPEhnFG9HvoRt_i-10" target="ymj67bPEhnFG9HvoRt_i-88">
          <mxGeometry width="50" height="50" relative="1" as="geometry">
            <mxPoint x="-1532.8547608200454" y="-1661.4576810780459" as="sourcePoint" />
            <mxPoint x="-1532.735854214123" y="-1633.5323582257158" as="targetPoint" />
          </mxGeometry>
        </mxCell>
        <mxCell id="ymj67bPEhnFG9HvoRt_i-96" value="" style="endArrow=classic;html=1;rounded=0;strokeWidth=3;entryX=0.677;entryY=-0.002;entryDx=0;entryDy=0;exitX=0.534;exitY=1.005;exitDx=0;exitDy=0;exitPerimeter=0;entryPerimeter=0;" edge="1" parent="1" source="ymj67bPEhnFG9HvoRt_i-78" target="ymj67bPEhnFG9HvoRt_i-57">
          <mxGeometry width="50" height="50" relative="1" as="geometry">
            <mxPoint x="-1888.43735763098" y="-1466.518983717013" as="sourcePoint" />
            <mxPoint x="-1768.0774487471526" y="-1583.3186412128018" as="targetPoint" />
          </mxGeometry>
        </mxCell>
        <mxCell id="ymj67bPEhnFG9HvoRt_i-97" value="" style="curved=1;endArrow=classic;html=1;rounded=0;strokeWidth=3;entryX=0.55;entryY=-0.003;entryDx=0;entryDy=0;entryPerimeter=0;exitX=0.468;exitY=1.006;exitDx=0;exitDy=0;exitPerimeter=0;" edge="1" parent="1" source="ymj67bPEhnFG9HvoRt_i-83" target="ymj67bPEhnFG9HvoRt_i-64">
          <mxGeometry width="50" height="50" relative="1" as="geometry">
            <mxPoint x="-1685.5034168564925" y="-1419.3571027512633" as="sourcePoint" />
            <mxPoint x="-1545.4578587699316" y="-1307.6558113419428" as="targetPoint" />
            <Array as="points">
              <mxPoint x="-1777" y="-1424" />
              <mxPoint x="-1807" y="-1414" />
              <mxPoint x="-1867" y="-1404" />
            </Array>
          </mxGeometry>
        </mxCell>
        <mxCell id="ymj67bPEhnFG9HvoRt_i-98" value="" style="curved=1;endArrow=classic;html=1;rounded=0;strokeWidth=3;exitX=0.531;exitY=0.99;exitDx=0;exitDy=0;entryX=0.594;entryY=0.007;entryDx=0;entryDy=0;entryPerimeter=0;exitPerimeter=0;" edge="1" parent="1" source="ymj67bPEhnFG9HvoRt_i-88" target="ymj67bPEhnFG9HvoRt_i-71">
          <mxGeometry width="50" height="50" relative="1" as="geometry">
            <mxPoint x="-1408.0546697038726" y="-1427.3357664233579" as="sourcePoint" />
            <mxPoint x="-1536.870159453303" y="-1248.21476698484" as="targetPoint" />
            <Array as="points">
              <mxPoint x="-1577" y="-1394" />
              <mxPoint x="-1617" y="-1404" />
              <mxPoint x="-1779" y="-1366" />
            </Array>
          </mxGeometry>
        </mxCell>
        <mxCell id="ymj67bPEhnFG9HvoRt_i-99" value="" style="group" vertex="1" connectable="0" parent="1">
          <mxGeometry x="-1997" y="-1806" width="130" height="100" as="geometry" />
        </mxCell>
        <mxCell id="ymj67bPEhnFG9HvoRt_i-100" value="" style="rounded=1;whiteSpace=wrap;html=1;fillColor=#f5f5f5;fontColor=#333333;strokeColor=#666666;strokeWidth=4;shadow=1;container=0;" vertex="1" parent="ymj67bPEhnFG9HvoRt_i-99">
          <mxGeometry width="130" height="100" as="geometry" />
        </mxCell>
        <mxCell id="ymj67bPEhnFG9HvoRt_i-101" value="" style="group" vertex="1" connectable="0" parent="ymj67bPEhnFG9HvoRt_i-99">
          <mxGeometry x="20" y="10" width="101.75" height="79.11" as="geometry" />
        </mxCell>
        <mxCell id="ymj67bPEhnFG9HvoRt_i-102" value="" style="ellipse;whiteSpace=wrap;html=1;aspect=fixed;strokeColor=#CC0000;strokeWidth=3;container=0;" vertex="1" parent="ymj67bPEhnFG9HvoRt_i-101">
          <mxGeometry x="23.124999999999968" width="16.061753917972652" height="16.061753917972652" as="geometry" />
        </mxCell>
        <mxCell id="ymj67bPEhnFG9HvoRt_i-103" value="" style="ellipse;whiteSpace=wrap;html=1;aspect=fixed;strokeColor=#CC0000;strokeWidth=3;container=0;" vertex="1" parent="ymj67bPEhnFG9HvoRt_i-101">
          <mxGeometry x="41.62500000000007" y="63.04824608202732" width="16.061753917972652" height="16.061753917972652" as="geometry" />
        </mxCell>
        <mxCell id="ymj67bPEhnFG9HvoRt_i-104" value="" style="ellipse;whiteSpace=wrap;html=1;aspect=fixed;strokeColor=#CC0000;strokeWidth=3;container=0;" vertex="1" parent="ymj67bPEhnFG9HvoRt_i-101">
          <mxGeometry x="83.24999999999999" y="19.399460332931515" width="16.061753917972652" height="16.061753917972652" as="geometry" />
        </mxCell>
        <mxCell id="ymj67bPEhnFG9HvoRt_i-105" value="" style="ellipse;whiteSpace=wrap;html=1;aspect=fixed;strokeColor=#CC0000;strokeWidth=3;container=0;" vertex="1" parent="ymj67bPEhnFG9HvoRt_i-101">
          <mxGeometry y="46.07371829071219" width="16.061753917972652" height="16.061753917972652" as="geometry" />
        </mxCell>
        <mxCell id="ymj67bPEhnFG9HvoRt_i-106" value="" style="endArrow=none;html=1;rounded=0;strokeWidth=3;exitX=0.017;exitY=0.313;exitDx=0;exitDy=0;exitPerimeter=0;entryX=0.857;entryY=0.728;entryDx=0;entryDy=0;entryPerimeter=0;" edge="1" parent="ymj67bPEhnFG9HvoRt_i-101" source="ymj67bPEhnFG9HvoRt_i-103" target="ymj67bPEhnFG9HvoRt_i-105">
          <mxGeometry width="50" height="50" relative="1" as="geometry">
            <mxPoint x="-4.625000000000026" y="82.44770641495883" as="sourcePoint" />
            <mxPoint x="20" y="60" as="targetPoint" />
          </mxGeometry>
        </mxCell>
        <mxCell id="ymj67bPEhnFG9HvoRt_i-107" value="" style="endArrow=none;html=1;rounded=0;strokeWidth=3;exitX=0.321;exitY=0.022;exitDx=0;exitDy=0;exitPerimeter=0;entryX=0.609;entryY=1;entryDx=0;entryDy=0;entryPerimeter=0;" edge="1" parent="ymj67bPEhnFG9HvoRt_i-101" source="ymj67bPEhnFG9HvoRt_i-103" target="ymj67bPEhnFG9HvoRt_i-102">
          <mxGeometry width="50" height="50" relative="1" as="geometry">
            <mxPoint x="55.96249999999997" y="30.554150024367132" as="sourcePoint" />
            <mxPoint x="32.37500000000002" y="19.399460332931515" as="targetPoint" />
          </mxGeometry>
        </mxCell>
        <mxCell id="ymj67bPEhnFG9HvoRt_i-108" value="" style="endArrow=none;html=1;rounded=0;strokeWidth=3;exitX=0.027;exitY=0.324;exitDx=0;exitDy=0;exitPerimeter=0;entryX=0.974;entryY=0.663;entryDx=0;entryDy=0;entryPerimeter=0;" edge="1" parent="ymj67bPEhnFG9HvoRt_i-101" source="ymj67bPEhnFG9HvoRt_i-104" target="ymj67bPEhnFG9HvoRt_i-102">
          <mxGeometry width="50" height="50" relative="1" as="geometry">
            <mxPoint x="65.21250000000002" y="25.70428494113422" as="sourcePoint" />
            <mxPoint x="41.62500000000007" y="14.549595249698601" as="targetPoint" />
          </mxGeometry>
        </mxCell>
        <mxCell id="ymj67bPEhnFG9HvoRt_i-109" value="" style="endArrow=none;html=1;rounded=0;strokeWidth=3;exitX=0.906;exitY=0.204;exitDx=0;exitDy=0;exitPerimeter=0;" edge="1" parent="ymj67bPEhnFG9HvoRt_i-101" source="ymj67bPEhnFG9HvoRt_i-103" target="ymj67bPEhnFG9HvoRt_i-104">
          <mxGeometry width="50" height="50" relative="1" as="geometry">
            <mxPoint x="51.33749999999995" y="79.05280085669578" as="sourcePoint" />
            <mxPoint x="27.749999999999993" y="67.89811116526016" as="targetPoint" />
          </mxGeometry>
        </mxCell>
        <mxCell id="ymj67bPEhnFG9HvoRt_i-110" value="" style="shape=flexArrow;endArrow=classic;html=1;rounded=0;strokeWidth=4;endWidth=25.992865636147446;endSize=5.752941176470588;width=12.941176470588236;" edge="1" parent="1">
          <mxGeometry width="50" height="50" relative="1" as="geometry">
            <mxPoint x="-1726.995785876993" y="-1285.9968163952838" as="sourcePoint" />
            <mxPoint x="-1670.31" y="-1286" as="targetPoint" />
          </mxGeometry>
        </mxCell>
        <mxCell id="ymj67bPEhnFG9HvoRt_i-111" value="" style="rounded=0;whiteSpace=wrap;html=1;strokeWidth=3;dashed=1;fillColor=none;" vertex="1" parent="1">
          <mxGeometry x="-2010" y="-1664" width="573" height="230" as="geometry" />
        </mxCell>
        <mxCell id="ymj67bPEhnFG9HvoRt_i-112" value="&lt;span style=&quot;font-size: 22px;&quot;&gt;&lt;b&gt;Parallel RL-based Logic Optimization&lt;/b&gt;&lt;/span&gt;" style="rounded=0;whiteSpace=wrap;html=1;fillColor=#647687;fontColor=#ffffff;strokeColor=#314354;strokeWidth=3;shadow=1;container=0;" vertex="1" parent="1">
          <mxGeometry x="-1646.8244874715263" y="-1433.997507018529" width="264.2369020501139" height="71.80797304884895" as="geometry" />
        </mxCell>
      </root>
    </mxGraphModel>
  </diagram>
</mxfile>
